<svg width="80.000000" height="80.000000" viewBox="0 0 80 80"  xmlns="http://www.w3.org/2000/svg" xmlns:xlink="http://www.w3.org/1999/xlink">
	<rect id="no-results 1" rx="-0.500000" width="79.000000" height="79.000000" transform="translate(0.500000 0.500000)" fill="#FFFFFF" fill-opacity="0"/>
		<path id="Vector" d="M48.75 7.81C35.8 7.81 25.31 18.3 25.31 31.24C25.31 44.19 35.8 54.68 48.75 54.68C49.32 54.68 49.88 54.66 50.44 54.62C50.4 54.39 50.38 54.16 50.38 53.92C50.38 51.86 52.06 50.18 54.11 50.18L54.92 50.18C54.92 46.05 58.27 42.7 62.4 42.7C64.5 42.7 66.4 43.56 67.75 44.96C70.54 41.1 72.18 36.36 72.18 31.24C72.18 18.3 61.69 7.81 48.75 7.81Z" fill="#12CDD9" fill-opacity="1.000000" fill-rule="evenodd"/>
		<path id="Vector" d="M25.31 31.24C25.31 18.3 35.8 7.81 48.75 7.81C61.69 7.81 72.18 18.3 72.18 31.24C72.18 36.36 70.54 41.1 67.75 44.96C68.16 45.37 68.51 45.83 68.81 46.33C69.22 46.22 69.66 46.16 70.1 46.16C71.44 46.16 72.66 46.71 73.53 47.59C76.63 42.9 78.43 37.28 78.43 31.24C78.43 14.85 65.14 1.56 48.75 1.56C40.31 1.56 32.7 5.07 27.3 10.72C24.83 13.3 22.82 16.32 21.4 19.66C19.89 23.22 19.06 27.13 19.06 31.24C19.06 37.78 21.17 43.83 24.75 48.73C26.57 51.22 28.77 53.42 31.26 55.24C36.16 58.82 42.21 60.93 48.75 60.93C53.63 60.93 58.25 59.75 62.31 57.66C59.57 57.66 56.83 57.66 54.09 57.66C52.29 57.66 50.78 56.33 50.44 54.62C49.88 54.66 49.32 54.68 48.75 54.68C35.8 54.68 25.31 44.19 25.31 31.24Z" fill="#FF8700" fill-opacity="1.000000" fill-rule="evenodd"/>
		<path id="Vector" d="M21.4 19.66C22.82 16.32 24.83 13.3 27.3 10.72C26.48 9.2 24.88 8.17 23.04 8.17C22.59 8.17 22.16 8.23 21.75 8.34C20.44 6.16 18.06 4.71 15.34 4.71C11.21 4.71 7.86 8.05 7.86 12.18L7.05 12.18C5 12.18 3.31 13.87 3.31 15.92C3.31 17.95 4.99 19.66 7.03 19.66L21.4 19.66L21.4 19.66Z" fill="#12CDD9" fill-opacity="1.000000" fill-rule="evenodd"/>
		<path id="Vector" d="M62.4 42.7C58.27 42.7 54.92 46.05 54.92 50.18L54.12 50.18C52.06 50.18 50.38 51.86 50.38 53.92C50.38 54.16 50.4 54.39 50.44 54.62C50.78 56.33 52.29 57.66 54.09 57.66L62.31 57.66L74.92 57.66C76.85 57.66 78.43 56.07 78.43 54.14C78.43 52.21 76.85 50.62 74.92 50.62C74.83 49.44 74.32 48.38 73.53 47.59C72.66 46.71 71.44 46.16 70.1 46.16C69.66 46.16 69.22 46.22 68.81 46.33C68.51 45.83 68.16 45.37 67.75 44.96C66.4 43.56 64.5 42.7 62.4 42.7Z" fill="#12CDD9" fill-opacity="1.000000" fill-rule="evenodd"/>
		<path id="Vector" d="M25.13 61.63L18.36 54.86L3.09 69.49C1.05 71.53 1.05 74.86 3.09 76.9C5.13 78.94 8.46 78.94 10.5 76.9L25.13 61.63Z" fill="#FF8700" fill-opacity="1.000000" fill-rule="evenodd"/>
		<path id="Vector" d="M18.36 54.86L25.13 61.63L31.26 55.24C28.77 53.42 26.57 51.22 24.75 48.73L18.36 54.86Z" fill="#FFC144" fill-opacity="1.000000" fill-rule="evenodd"/>
		<path id="Vector" d="M40.93 32.81C41.8 32.81 42.5 32.11 42.5 31.24C42.5 30.38 41.8 29.68 40.93 29.68L40.93 29.68C40.07 29.68 39.37 30.38 39.37 31.24C39.37 32.11 40.07 32.81 40.93 32.81Z" fill="#000000" fill-opacity="1.000000" fill-rule="nonzero"/>
		<path id="Vector" d="M48.75 32.81C49.61 32.81 50.31 32.11 50.31 31.24C50.31 30.38 49.61 29.68 48.75 29.68L48.75 29.68C47.88 29.68 47.18 30.38 47.18 31.24C47.18 32.11 47.88 32.81 48.75 32.81Z" fill="#000000" fill-opacity="1.000000" fill-rule="nonzero"/>
		<path id="Vector" d="M56.56 32.81C57.42 32.81 58.12 32.11 58.12 31.24C58.12 30.38 57.42 29.68 56.56 29.68L56.56 29.68C55.7 29.68 55 30.38 55 31.24C55 32.11 55.7 32.81 56.56 32.81Z" fill="#000000" fill-opacity="1.000000" fill-rule="nonzero"/>
		<path id="Vector" d="M76.25 49.24C76.07 48.61 75.8 48.02 75.44 47.49C78.42 42.6 80 37.01 80 31.24C80 14.01 65.98 0 48.75 0C40.53 0 33.05 3.18 27.46 8.38C26.29 7.26 24.7 6.6 23.04 6.6C22.85 6.6 22.66 6.61 22.47 6.63C20.77 4.46 18.12 3.14 15.34 3.14C10.87 3.14 7.15 6.4 6.42 10.66C3.8 10.97 1.75 13.21 1.75 15.92C1.75 18.85 4.12 21.22 7.03 21.22L19.14 21.22C18.08 24.37 17.5 27.74 17.5 31.24C17.5 37.63 19.42 43.57 22.72 48.52L2.01 68.37C2 68.37 1.99 68.38 1.98 68.39C-0.67 71.04 -0.67 75.35 1.98 78.01C3.31 79.33 5.05 80 6.79 80C8.53 80 10.28 79.33 11.6 78.01C11.61 78 11.62 77.99 11.62 77.98L31.47 57.27C36.42 60.57 42.36 62.49 48.75 62.49C53.65 62.49 58.34 61.39 62.69 59.22L74.92 59.22C77.72 59.22 80 56.94 80 54.14C80 51.8 78.4 49.83 76.25 49.24ZM7.03 18.1C5.86 18.1 4.88 17.1 4.88 15.92C4.88 14.72 5.85 13.75 7.05 13.75L7.86 13.75C8.72 13.75 9.42 13.05 9.42 12.18C9.42 8.92 12.07 6.27 15.34 6.27C17.43 6.27 19.33 7.34 20.41 9.14C20.77 9.75 21.49 10.03 22.17 9.85C22.45 9.77 22.74 9.73 23.04 9.73C23.88 9.73 24.68 10.06 25.28 10.63C23.32 12.86 21.67 15.37 20.4 18.1L7.03 18.1L7.03 18.1ZM9.38 75.81C7.95 77.23 5.62 77.23 4.19 75.8C2.76 74.37 2.76 72.04 4.18 70.61L18.34 57.04L22.95 61.65L9.38 75.81ZM25.11 59.39L20.6 54.88L24.59 51.05C25.9 52.64 27.35 54.09 28.94 55.4L25.11 59.39ZM20.62 31.24C20.62 15.74 33.24 3.12 48.75 3.12C64.25 3.12 76.87 15.74 76.87 31.24C76.87 36.23 75.57 41.07 73.09 45.34C72.19 44.87 71.17 44.6 70.1 44.6C70.03 44.6 69.96 44.6 69.88 44.6C72.41 40.61 73.75 36.02 73.75 31.24C73.75 17.46 62.53 6.24 48.75 6.24C44.7 6.24 40.67 7.24 37.1 9.12C36.34 9.52 36.05 10.47 36.45 11.23C36.85 11.99 37.8 12.28 38.56 11.88C41.68 10.24 45.2 9.37 48.75 9.37C60.81 9.37 70.62 19.18 70.62 31.24C70.62 35.31 69.51 39.23 67.41 42.66C65.94 41.69 64.2 41.14 62.4 41.14C57.93 41.14 54.21 44.39 53.49 48.65C51.12 48.93 49.23 50.78 48.87 53.12C48.83 53.12 48.79 53.12 48.75 53.12C36.68 53.12 26.87 43.31 26.87 31.24C26.87 27.7 27.74 24.18 29.38 21.06C29.79 20.3 29.49 19.35 28.73 18.95C27.97 18.55 27.02 18.84 26.62 19.6C24.74 23.17 23.75 27.19 23.75 31.24C23.75 45.03 34.96 56.24 48.75 56.24C48.98 56.24 49.17 56.24 49.35 56.24C50.03 57.64 51.32 58.7 52.86 59.07C51.51 59.27 50.14 59.37 48.75 59.37C33.24 59.37 20.62 46.75 20.62 31.24ZM74.92 56.09L54.09 56.09C52.92 56.09 51.94 55.1 51.94 53.92C51.94 52.72 52.91 51.74 54.12 51.74L54.92 51.74C55.78 51.74 56.48 51.04 56.48 50.18C56.48 46.92 59.14 44.26 62.4 44.26C64.5 44.26 66.39 45.34 67.47 47.14C67.84 47.74 68.55 48.03 69.23 47.84C69.51 47.76 69.81 47.72 70.1 47.72C71.8 47.72 73.23 49.05 73.36 50.74C73.42 51.56 74.1 52.19 74.92 52.19C75.99 52.19 76.87 53.06 76.87 54.14C76.87 55.22 75.99 56.09 74.92 56.09Z" fill="#000000" fill-opacity="1.000000" fill-rule="nonzero"/>
		<path id="Vector" d="M32.17 16.23C33.04 16.23 33.74 15.53 33.74 14.67C33.74 13.81 33.04 13.11 32.17 13.11L32.17 13.11C31.31 13.11 30.61 13.81 30.61 14.67C30.61 15.53 31.31 16.23 32.17 16.23Z" fill="#000000" fill-opacity="1.000000" fill-rule="nonzero"/>
</svg>
